<svg width="200" height="90" viewBox="0 0 200 90" fill="none" xmlns="http://www.w3.org/2000/svg"><path d="M103.329 34.3063C103.329 35.9279 102.022 37.2342 100.401 37.2342C98.7792 37.2342 97.4729 35.9279 97.4729 34.3063C97.4729 32.6847 98.7341 31.3784 100.401 31.3784C102.067 31.4234 103.329 32.7297 103.329 34.3063ZM91.2567 40.2072C91.2567 40.4775 91.2567 40.9279 91.2567 40.9279C91.2567 40.9279 89.8603 39.1261 86.8873 39.1261C81.9774 39.1261 78.1485 42.8649 78.1485 48.045C78.1485 53.1802 81.9323 56.964 86.8873 56.964C89.9053 56.964 91.2567 55.1171 91.2567 55.1171V55.8829C91.2567 56.2432 91.5269 56.5135 91.8873 56.5135H95.5359V39.5766C95.5359 39.5766 92.2026 39.5766 91.8873 39.5766C91.5269 39.5766 91.2567 39.8919 91.2567 40.2072ZM91.2567 51.0631C90.581 52.0541 89.2296 52.9099 87.608 52.9099C84.7251 52.9099 82.5179 51.1081 82.5179 48.045C82.5179 44.982 84.7251 43.1802 87.608 43.1802C89.1846 43.1802 90.626 44.0811 91.2567 45.027V51.0631ZM98.2386 39.5766H102.563V56.5135H98.2386V39.5766ZM162.833 39.1261C159.86 39.1261 158.464 40.9279 158.464 40.9279V31.4234H154.14V56.5135C154.14 56.5135 157.473 56.5135 157.788 56.5135C158.149 56.5135 158.419 56.1982 158.419 55.8829V55.1171C158.419 55.1171 159.815 56.964 162.788 56.964C167.698 56.964 171.527 53.1802 171.527 48.045C171.527 42.9099 167.698 39.1261 162.833 39.1261ZM162.113 52.8649C160.446 52.8649 159.14 52.009 158.464 51.018V44.982C159.14 44.0811 160.581 43.1351 162.113 43.1351C164.995 43.1351 167.203 44.9369 167.203 48C167.203 51.0631 164.995 52.8649 162.113 52.8649ZM151.887 46.4685V56.5586H147.563V46.964C147.563 44.1712 146.662 43.045 144.23 43.045C142.923 43.045 141.572 43.7207 140.716 44.7117V56.5135H136.392V39.5766H139.815C140.176 39.5766 140.446 39.8919 140.446 40.2072V40.9279C141.707 39.6216 143.374 39.1261 145.04 39.1261C146.932 39.1261 148.509 39.6667 149.77 40.7477C151.302 42.009 151.887 43.6306 151.887 46.4685ZM125.896 39.1261C122.923 39.1261 121.527 40.9279 121.527 40.9279V31.4234H117.203V56.5135C117.203 56.5135 120.536 56.5135 120.851 56.5135C121.212 56.5135 121.482 56.1982 121.482 55.8829V55.1171C121.482 55.1171 122.878 56.964 125.851 56.964C130.761 56.964 134.59 53.1802 134.59 48.045C134.635 42.9099 130.806 39.1261 125.896 39.1261ZM125.176 52.8649C123.509 52.8649 122.203 52.009 121.527 51.018V44.982C122.203 44.0811 123.644 43.1351 125.176 43.1351C128.058 43.1351 130.266 44.9369 130.266 48C130.266 51.0631 128.058 52.8649 125.176 52.8649ZM113.464 39.1261C114.77 39.1261 115.446 39.3514 115.446 39.3514V43.3604C115.446 43.3604 111.842 42.1441 109.59 44.7117V56.5586H105.266V39.5766C105.266 39.5766 108.599 39.5766 108.914 39.5766C109.275 39.5766 109.545 39.8919 109.545 40.2072V40.9279C110.356 39.982 112.113 39.1261 113.464 39.1261ZM68.554 54.982C68.3287 54.4414 68.1035 53.8559 67.8783 53.3604C67.5179 52.5496 67.1576 51.7838 66.8422 51.0631L66.7972 51.018C63.6891 44.2613 60.3558 37.4144 56.8422 30.6577L56.7071 30.3874C56.3467 29.7117 55.9864 28.991 55.626 28.2703C55.1756 27.4595 54.7251 26.6036 54.0044 25.7928C52.563 23.991 50.4909 23 48.2837 23C46.0314 23 44.0044 23.991 42.5179 25.7027C41.8422 26.5135 41.3467 27.3694 40.8963 28.1802C40.5359 28.9009 40.1756 29.6216 39.8152 30.2973L39.6801 30.5676C36.2116 37.3243 32.8332 44.1712 29.7251 50.9279L29.6801 51.018C29.3648 51.7387 29.0044 52.5045 28.644 53.3153C28.4188 53.8108 28.1936 54.3514 27.9684 54.9369C27.3828 56.6036 27.2026 58.1802 27.4278 59.8018C27.9233 63.1802 30.1756 66.018 33.2837 67.2793C34.4549 67.7748 35.6711 68 36.9323 68C37.2927 68 37.7431 67.955 38.1035 67.9099C39.59 67.7297 41.1215 67.2342 42.608 66.3784C44.4549 65.3423 46.2116 63.8559 48.1936 61.6937C50.1756 63.8559 51.9774 65.3423 53.7792 66.3784C55.2657 67.2342 56.7972 67.7297 58.2837 67.9099C58.644 67.955 59.0945 68 59.4549 68C60.7161 68 61.9774 67.7748 63.1035 67.2793C66.2567 66.018 68.4639 63.1351 68.9594 59.8018C69.3197 58.2252 69.1395 56.6486 68.554 54.982ZM48.2386 57.3243C45.8062 54.2613 44.2296 51.3784 43.6891 48.9459C43.4639 47.9099 43.4188 47.009 43.554 46.1982C43.644 45.4775 43.9143 44.8468 44.2747 44.3063C45.1305 43.0901 46.572 42.3243 48.2386 42.3243C49.9053 42.3243 51.3918 43.045 52.2026 44.3063C52.563 44.8468 52.8332 45.4775 52.9233 46.1982C53.0585 47.009 53.0134 47.955 52.7882 48.9459C52.2476 51.3333 50.6711 54.2162 48.2386 57.3243ZM66.2116 59.4414C65.8963 61.7838 64.3197 63.8108 62.1125 64.7117C61.0314 65.1622 59.8603 65.2973 58.6891 65.1622C57.563 65.027 56.4368 64.6667 55.2657 63.991C53.644 63.0901 52.0224 61.6937 50.1305 59.6216C53.1035 55.973 54.9053 52.6396 55.581 49.6667C55.8963 48.2703 55.9413 47.009 55.8062 45.8378C55.626 44.7117 55.2206 43.6757 54.59 42.7748C53.1936 40.7477 50.8513 39.5766 48.2386 39.5766C45.626 39.5766 43.2837 40.7928 41.8873 42.7748C41.2567 43.6757 40.8513 44.7117 40.6711 45.8378C40.4909 47.009 40.5359 48.3153 40.8963 49.6667C41.572 52.6396 43.4188 56.018 46.3467 59.6667C44.4999 61.7387 42.8332 63.1351 41.2116 64.036C40.0404 64.7117 38.9143 65.0721 37.7882 65.2072C36.572 65.3423 35.4008 65.1622 34.3648 64.7568C32.1576 63.8559 30.581 61.8288 30.2657 59.4865C30.1305 58.3604 30.2206 57.2342 30.6711 55.973C30.8062 55.5225 31.0314 55.0721 31.2567 54.5315C31.572 53.8108 31.9323 53.045 32.2927 52.2793L32.3377 52.1892C35.4458 45.4775 38.7792 38.6306 42.2476 31.964L42.3828 31.6937C42.7431 31.018 43.1035 30.2973 43.4639 29.6216C43.8242 28.9009 44.2296 28.2252 44.7251 27.6396C45.6711 26.5586 46.9323 25.973 48.3287 25.973C49.7251 25.973 50.9864 26.5586 51.9323 27.6396C52.4278 28.2252 52.8332 28.9009 53.1936 29.6216C53.554 30.2973 53.9143 31.018 54.2747 31.6937L54.4098 31.964C57.8332 38.6757 61.1666 45.5225 64.2747 52.2342V52.2793C64.635 53 64.9504 53.8108 65.3107 54.5315C65.5359 55.0721 65.7612 55.5225 65.8963 55.973C66.2567 57.1441 66.3918 58.2703 66.2116 59.4414Z" fill="#000000"></path></svg>