<svg width="200" height="90" viewBox="0 0 200 90" fill="none" xmlns="http://www.w3.org/2000/svg"><path d="M85.916 35V56H82.2702V39.5208H82.2216L75.7077 56H73.2771L66.6174 39.5208H66.5688V56H63.2146V35H68.4646L74.4924 50.5556H74.5896L80.9577 35H85.916ZM88.9299 36.6042C88.9299 36.0208 89.1243 35.5347 89.5618 35.1458C89.9993 34.7569 90.4855 34.5625 91.0688 34.5625C91.7007 34.5625 92.2355 34.7569 92.6244 35.1458C93.0132 35.5347 93.2563 36.0208 93.2563 36.6042C93.2563 37.1875 93.0619 37.6736 92.6244 38.0625C92.1869 38.4514 91.7007 38.6458 91.0688 38.6458C90.4369 38.6458 89.9507 38.4514 89.5618 38.0625C89.173 37.625 88.9299 37.1389 88.9299 36.6042ZM92.8674 40.9306V56H89.3188V40.9306H92.8674ZM103.61 53.4236C104.145 53.4236 104.729 53.3264 105.36 53.0347C105.992 52.7917 106.576 52.4514 107.11 52.0625V55.3681C106.527 55.7083 105.895 55.9514 105.166 56.0972C104.437 56.2431 103.659 56.3403 102.784 56.3403C100.548 56.3403 98.7494 55.6597 97.3882 54.25C95.9785 52.8403 95.298 51.0417 95.298 48.9028C95.298 46.4722 96.0271 44.4792 97.4369 42.9236C98.8466 41.3681 100.84 40.5903 103.465 40.5903C104.145 40.5903 104.826 40.6875 105.458 40.8333C106.138 40.9792 106.673 41.2222 107.062 41.4167V44.8194C106.527 44.4306 105.944 44.0903 105.409 43.8958C104.826 43.7014 104.242 43.5556 103.659 43.5556C102.249 43.5556 101.131 43.9931 100.256 44.9167C99.3813 45.8403 98.9924 47.0556 98.9924 48.6111C98.9924 50.1181 99.4299 51.3333 100.256 52.1597C101.083 52.9861 102.201 53.4236 103.61 53.4236ZM117.173 40.6875C117.465 40.6875 117.708 40.6875 117.951 40.7361C118.194 40.7847 118.388 40.8333 118.534 40.8819V44.4792C118.34 44.3333 118.097 44.1875 117.708 44.0903C117.319 43.9931 116.93 43.8958 116.395 43.8958C115.52 43.8958 114.791 44.2847 114.208 45.0139C113.624 45.7431 113.284 46.8611 113.284 48.4167V56H109.735V40.9306H113.284V43.3125H113.333C113.673 42.4861 114.159 41.8542 114.791 41.3681C115.472 40.9306 116.249 40.6875 117.173 40.6875ZM118.729 48.7083C118.729 46.2292 119.458 44.2361 120.819 42.7778C122.229 41.3194 124.173 40.5903 126.652 40.5903C128.985 40.5903 130.833 41.2708 132.145 42.6806C133.458 44.0903 134.138 45.9861 134.138 48.3681C134.138 50.7986 133.409 52.7431 132.048 54.2014C130.638 55.6597 128.742 56.3889 126.312 56.3889C123.979 56.3889 122.131 55.7083 120.77 54.3472C119.409 52.9375 118.729 51.0417 118.729 48.7083ZM122.423 48.5625C122.423 50.1181 122.763 51.3333 123.492 52.1597C124.222 52.9861 125.242 53.4236 126.555 53.4236C127.819 53.4236 128.84 53.0347 129.52 52.1597C130.201 51.3333 130.541 50.1181 130.541 48.4653C130.541 46.8611 130.201 45.6458 129.52 44.7708C128.84 43.9444 127.819 43.5069 126.604 43.5069C125.291 43.5069 124.319 43.9444 123.59 44.8194C122.763 45.7431 122.423 46.9583 122.423 48.5625ZM139.437 44.9167C139.437 45.4028 139.583 45.8403 139.923 46.1319C140.263 46.4236 140.944 46.7639 142.062 47.2014C143.472 47.7847 144.492 48.4167 145.027 49.0972C145.61 49.8264 145.902 50.6528 145.902 51.6736C145.902 53.0833 145.367 54.2014 144.249 55.0764C143.18 55.9514 141.673 56.3403 139.826 56.3403C139.194 56.3403 138.513 56.2431 137.735 56.0972C136.958 55.9514 136.326 55.7569 135.791 55.5139V52.0139C136.423 52.4514 137.152 52.8403 137.881 53.0833C138.61 53.3264 139.291 53.4722 139.923 53.4722C140.701 53.4722 141.333 53.375 141.673 53.1319C142.062 52.8889 142.256 52.5486 142.256 52.0139C142.256 51.5278 142.062 51.1389 141.673 50.75C141.284 50.4097 140.506 50.0208 139.437 49.5833C138.124 49.0486 137.201 48.4167 136.666 47.7361C136.131 47.0556 135.84 46.1806 135.84 45.1111C135.84 43.75 136.374 42.6319 137.444 41.7569C138.513 40.8819 139.923 40.4444 141.624 40.4444C142.159 40.4444 142.742 40.4931 143.374 40.6389C144.006 40.7847 144.59 40.9306 145.027 41.0764V44.5278C144.541 44.2361 144.006 43.9444 143.374 43.7014C142.742 43.4583 142.11 43.3611 141.527 43.3611C140.847 43.3611 140.312 43.5069 139.972 43.75C139.631 44.0903 139.437 44.4306 139.437 44.9167ZM147.409 48.7083C147.409 46.2292 148.138 44.2361 149.499 42.7778C150.909 41.3194 152.854 40.5903 155.333 40.5903C157.666 40.5903 159.513 41.2708 160.826 42.6806C162.138 44.0903 162.819 45.9861 162.819 48.3681C162.819 50.7986 162.09 52.7431 160.729 54.2014C159.319 55.6597 157.423 56.3889 154.992 56.3889C152.659 56.3889 150.812 55.7083 149.451 54.3472C148.138 52.9375 147.409 51.0417 147.409 48.7083ZM151.104 48.5625C151.104 50.1181 151.444 51.3333 152.173 52.1597C152.902 52.9861 153.923 53.4236 155.235 53.4236C156.499 53.4236 157.52 53.0347 158.201 52.1597C158.881 51.3333 159.222 50.1181 159.222 48.4653C159.222 46.8611 158.881 45.6458 158.201 44.7708C157.52 43.9444 156.499 43.5069 155.284 43.5069C153.972 43.5069 152.999 43.9444 152.27 44.8194C151.492 45.7431 151.104 46.9583 151.104 48.5625ZM174.631 43.8472H169.333V56H165.735V43.8472H163.208V40.9306H165.735V38.8403C165.735 37.2847 166.27 35.9722 167.291 34.9514C168.312 33.9306 169.624 33.4444 171.229 33.4444C171.666 33.4444 172.055 33.4931 172.395 33.4931C172.735 33.4931 173.027 33.5903 173.27 33.6875V36.75C173.173 36.7014 172.93 36.6042 172.638 36.5069C172.347 36.4097 172.006 36.3611 171.617 36.3611C170.888 36.3611 170.305 36.6042 169.916 37.0417C169.527 37.4792 169.333 38.2083 169.333 39.0833V40.8819H174.631V37.4792L178.18 36.4097V40.8819H181.777V43.7986H178.18V50.8472C178.18 51.7708 178.374 52.4028 178.666 52.7917C179.006 53.1806 179.541 53.375 180.27 53.375C180.465 53.375 180.708 53.3264 180.999 53.2292C181.291 53.1319 181.534 53.0347 181.729 52.8889V55.8056C181.485 55.9514 181.145 56.0486 180.61 56.1458C180.076 56.2431 179.59 56.2917 179.055 56.2917C177.548 56.2917 176.43 55.9028 175.701 55.125C174.972 54.3472 174.583 53.1319 174.583 51.5278L174.631 43.8472Z" fill="#000000"></path><path d="M34.291 28H17.666V44.625H34.291V28Z" fill="#000000"></path><path d="M52.666 28H36.041V44.625H52.666V28Z" fill="#000000"></path><path d="M34.291 46.375H17.666V63H34.291V46.375Z" fill="#000000"></path><path d="M52.666 46.375H36.041V63H52.666V46.375Z" fill="#000000"></path></svg>