<svg width="200" height="90" viewBox="0 0 200 90" fill="none" xmlns="http://www.w3.org/2000/svg"><path d="M156.952 44.6611L163.862 63C161.826 62.708 159.791 62.3434 157.716 62.0143L153.824 51.8802L149.824 61.1771C147.859 60.8496 145.93 60.7382 143.967 60.4834L150.987 44.4417L144.622 28H150.514L154.079 37.1872L157.899 28H163.862L156.952 44.6611ZM139.966 28H134.619V59.7913C136.365 59.901 138.184 59.9736 139.966 60.1914V28ZM129.999 59.4267C125.127 59.0976 120.252 58.8073 115.269 58.6976V28H120.725V53.5208C123.852 53.5934 126.98 53.8483 129.999 53.9934V59.4267ZM109.449 40.433V45.9H101.994V58.333H96.6097V28H111.887V33.4688H101.994V40.433H109.449ZM87.4428 33.4688V58.625C85.625 58.625 83.77 58.625 81.9876 58.6976V33.4688H76.35V28H93.1175V33.4688H87.4428ZM70.4576 46.192C68.0575 46.192 65.2201 46.192 63.1828 46.3017V54.4323C66.3831 54.2129 69.585 53.958 72.8207 53.8483V59.0976L57.7259 60.3028V28H72.8207V33.4688H63.1828V40.833C65.2927 40.833 68.5301 40.7233 70.4576 40.7233V46.192ZM40.231 43.1302V62.2337C38.268 62.4531 36.521 62.708 34.666 63V28H39.8681L46.9606 47.8698V28H52.4158V60.7382C50.4883 61.0674 48.5252 61.1771 46.4508 61.4674L40.231 43.1302Z" fill="#000000"></path></svg>