<svg width="200" height="90" viewBox="0 0 200 90" fill="none" xmlns="http://www.w3.org/2000/svg"><path d="M51.8852 39.2497V43.5298H62.1157C61.8025 45.9308 61.0022 47.6881 59.7843 48.9234C58.288 50.4197 55.9565 52.0552 51.8852 52.0552C45.5868 52.0552 40.6629 46.9748 40.6629 40.6764C40.6629 34.378 45.5868 29.2975 51.8852 29.2975C55.2779 29.2975 57.766 30.6372 59.5929 32.3597L62.6029 29.3497C60.0626 26.8791 56.6525 25 51.8852 25C43.2553 25 36 32.0291 36 40.659C36 49.2888 43.2553 56.318 51.8852 56.318C56.5481 56.318 60.0626 54.7869 62.8117 51.9334C65.6303 49.1148 66.5176 45.1305 66.5176 41.9291C66.5176 40.9374 66.448 40.0152 66.2914 39.2497H51.8852Z" fill="#000000"></path><path d="M79.3058 35.7699C73.7207 35.7699 69.1622 40.0152 69.1622 45.8786C69.1622 51.6899 73.7207 55.9874 79.3058 55.9874C84.8908 55.9874 89.4493 51.7073 89.4493 45.8786C89.4493 40.0152 84.8908 35.7699 79.3058 35.7699ZM79.3058 52.003C76.2436 52.003 73.599 49.4802 73.599 45.8786C73.599 42.2423 76.2436 39.7542 79.3058 39.7542C82.368 39.7542 85.0126 42.2423 85.0126 45.8786C85.0126 49.4802 82.368 52.003 79.3058 52.003Z" fill="#000000"></path><path d="M129.032 38.0318H128.875C127.883 36.8486 125.97 35.7699 123.551 35.7699C118.505 35.7699 114.104 40.1718 114.104 45.8786C114.104 51.5507 118.505 55.9874 123.551 55.9874C125.97 55.9874 127.883 54.9087 128.875 53.6907H129.032V55.1C129.032 58.9626 126.961 61.0331 123.638 61.0331C120.924 61.0331 119.236 59.0844 118.54 57.4315L114.678 59.0322C115.791 61.7116 118.732 65 123.638 65C128.84 65 133.242 61.9378 133.242 54.4737V36.2919H129.032V38.0318ZM123.934 52.003C120.872 52.003 118.54 49.3932 118.54 45.8786C118.54 42.3119 120.872 39.7542 123.934 39.7542C126.961 39.7542 129.328 42.3641 129.328 45.9134C129.345 49.4454 126.961 52.003 123.934 52.003Z" fill="#000000"></path><path d="M101.924 35.7699C96.3393 35.7699 91.7808 40.0152 91.7808 45.8786C91.7808 51.6899 96.3393 55.9874 101.924 55.9874C107.509 55.9874 112.068 51.7073 112.068 45.8786C112.068 40.0152 107.509 35.7699 101.924 35.7699ZM101.924 52.003C98.8621 52.003 96.2175 49.4802 96.2175 45.8786C96.2175 42.2423 98.8621 39.7542 101.924 39.7542C104.987 39.7542 107.631 42.2423 107.631 45.8786C107.631 49.4802 104.987 52.003 101.924 52.003Z" fill="#000000"></path><path d="M136.722 25.4176H141.089V55.9874H136.722V25.4176Z" fill="#000000"></path><path d="M154.573 52.003C152.311 52.003 150.711 50.9765 149.667 48.9408L163.186 43.3558L162.733 42.2075C161.898 39.9456 159.323 35.7699 154.086 35.7699C148.884 35.7699 144.552 39.8586 144.552 45.8786C144.552 51.5507 148.832 55.9874 154.573 55.9874C159.201 55.9874 161.881 53.1514 162.994 51.5159L159.549 49.2192C158.401 50.8895 156.835 52.003 154.573 52.003ZM154.26 39.5629C156.052 39.5629 157.583 40.485 158.088 41.7899L148.953 45.5655C148.953 41.3201 151.963 39.5629 154.26 39.5629Z" fill="#000000"></path></svg>