<svg width="30" height="39" viewBox="0 0 30 39" fill="none" xmlns="http://www.w3.org/2000/svg"><title>Khinkali</title><path d="M18.6493 24.9955C16.0635 23.2933 14.4325 20.4702 14.2484 17.3801H11.8286C11.7516 18.8925 11.3422 24.1533 9.09456 26.4013C8.8515 26.6444 8.45989 26.6504 8.21074 26.4071C7.96768 26.1641 7.96159 25.7724 8.20492 25.5233C10.097 23.6312 10.4941 18.8332 10.5715 17.3799H8.88112C8.69737 20.4698 7.06637 23.2989 4.48026 25.0014C2.22648 26.4841 0.933594 28.6073 0.933594 30.8196C0.933594 35.1253 5.70224 38.6363 11.5619 38.6363C17.4217 38.6363 22.1903 35.1251 22.1903 30.8196C22.1958 28.6018 20.9029 26.4786 18.6492 24.9958L18.6493 24.9955ZM17.1785 31.7685C16.9116 31.9819 16.5202 31.9406 16.3066 31.6737C13.851 28.9454 13.169 25.2031 13.1393 25.0487C13.08 24.7048 13.3114 24.3844 13.6492 24.3251C13.9932 24.2658 14.3136 24.4972 14.3729 24.835C14.3787 24.8705 15.0253 28.3878 17.2198 30.8492C17.2375 30.8669 17.2494 30.8847 17.2672 30.9027C17.4869 31.1638 17.4454 31.5551 17.1785 31.7685Z" fill="#FA5046"></path><path d="M26.2312 21.2824C23.6454 19.5802 22.0143 16.7571 21.8303 13.667H16.4627C16.3738 14.7997 16.0357 15.903 15.4722 16.8936C15.5138 19.7346 16.955 22.374 19.3332 23.9396C21.9428 25.6596 23.4375 28.1564 23.4375 30.7958C23.4317 32.1065 23.0697 33.3877 22.3938 34.5085V34.5262C26.7353 33.4764 29.7835 30.4932 29.778 27.1006C29.778 24.8887 28.4852 22.7654 26.2314 21.2827L26.2312 21.2824ZM24.0841 23.726C23.8707 23.9929 23.4791 24.0345 23.2122 23.8208C19.2562 20.6535 19.6121 15.6299 19.6121 15.4164C19.6359 15.0725 19.9383 14.8175 20.2764 14.8472C20.6203 14.871 20.8753 15.1734 20.8457 15.5115C20.8398 15.5589 20.5549 20.1022 23.9891 22.8537H23.9832C24.2504 23.0674 24.2978 23.4587 24.0841 23.7256L24.0841 23.726Z" fill="#FA5046"></path><path d="M5.09184 14.5334C5.43579 14.5334 5.70877 14.2546 5.7146 13.9165C5.7146 13.774 5.6672 13.6437 5.58406 13.5309C2.49995 9.63425 5.91026 6.62117 6.05854 6.49103C6.31961 6.27153 6.34927 5.88019 6.12367 5.61914C5.90417 5.35807 5.51284 5.32841 5.25179 5.554C5.20439 5.58948 0.779684 9.46263 4.6052 14.302C4.72408 14.4503 4.90201 14.5335 5.09186 14.5335L5.09184 14.5334Z" fill="#FA5046"></path><path d="M9.30641 6.23612C8.322 7.11384 7.10001 8.20528 7.34918 10.3227C7.67538 13.0806 10.0716 13.822 11.2875 13.8278C11.6314 13.8278 11.9044 13.549 11.9044 13.2109C11.9044 12.8727 11.6256 12.5939 11.2875 12.5939C11.1866 12.5939 8.84386 12.5465 8.56507 10.18C8.39296 8.70306 9.19364 7.99134 10.1191 7.161C10.9436 6.40773 11.9161 5.55381 11.9161 4.09465C11.9161 1.74001 9.6565 0.791053 8.46421 0.642745C8.12026 0.595349 7.80597 0.83259 7.75832 1.17653C7.71092 1.52048 7.94816 1.83476 8.29211 1.88242C8.39299 1.88242 10.6764 2.23246 10.6764 4.11234C10.6944 4.96701 10.1665 5.48311 9.30647 6.23611L9.30641 6.23612Z" fill="#FA5046"></path></svg>