<svg viewBox="0 0 420 540" fill="none" xmlns="http://www.w3.org/2000/svg"><rect width="310" height="540" rx="155" fill="#EDFA60"></rect><path d="M74 155.726C74 198.955 106.191 231.452 150.033 231.452C150.296 231.452 344.493 231.451 344.755 231.449C388.194 231.062 420 198.695 420 155.726C420 112.501 388.568 80.4591 344.909 80.0049C344.595 80.0016 150.347 80 150.033 80C105.885 80 74 112.191 74 155.726ZM381.677 155.726C381.677 179.596 366.193 195.723 344.909 196.185C344.596 196.192 150.348 196.195 150.033 196.195C128.265 196.195 112.323 179.946 112.323 155.726C112.323 131.506 128.265 115.257 150.033 115.257C150.348 115.257 344.596 115.261 344.909 115.267C366.193 115.729 381.677 131.857 381.677 155.726Z" fill="#FA5046"></path><circle id="product-circle" cx="154.638" cy="155.88" r="29.8919" fill="#FA5046"></circle></svg>