<svg class="cta-image" width="1079" height="472" viewBox="0 0 1079 472" fill="none" xmlns="http://www.w3.org/2000/svg"><path d="M0 236C0 370.721 100.324 472 236.956 472C237.775 472 842.989 471.996 843.807 471.989C979.183 470.783 1078.31 369.912 1078.31 236C1078.31 101.29 980.348 1.43068 844.284 0.0152374C843.308 0.00508521 237.935 0 236.956 0C99.3685 0 0 100.324 0 236ZM958.873 236C958.873 310.39 910.616 360.651 844.284 362.09C843.31 362.111 237.937 362.121 236.956 362.121C169.117 362.121 119.433 311.482 119.433 236C119.433 160.518 169.117 109.879 236.956 109.879C237.937 109.879 843.31 109.889 844.284 109.91C910.616 111.349 958.873 161.611 958.873 236Z" fill="#FA5046"></path><circle cx="251.307" cy="236.48" r="93.1579" fill="#FA5046"></circle></svg>