<svg width="106" height="26" viewBox="0 0 106 26" fill="none" xmlns="http://www.w3.org/2000/svg">
										<path d="M3.69462 20.0441V12.5419C3.69462 10.3943 4.86863 9.16299 6.50078 9.16299C8.07568 9.16299 9.04924 10.3084 9.04924 12.1696V20.0441H12.7144V11.1674C12.7144 8.04626 10.7673 6.18502 7.81797 6.18502C6.0999 6.18502 4.58228 6.87225 3.69462 8.2467V6.47136H0.0294189V20.0441H3.69462Z" fill="white"></path>
										<path d="M46.1476 15.4626C46.1476 18.4405 47.9516 20.3304 51.2445 20.3304C54.108 20.3304 55.9406 18.6696 56.3128 15.8348L52.934 15.2048C52.8194 16.4648 52.2754 17.0947 51.3304 17.0947C50.4141 17.0947 49.7842 16.4934 49.7842 15.4626V9.47797H54.8811V6.47136H49.7842V2.0044H46.1476V6.47136H43.3414V9.47797H46.1476V15.4626Z" fill="white"></path>
										<path d="M61.1106 20.0441V13C61.1106 10.6806 62.4278 9.22026 64.1745 9.22026C65.9212 9.22026 66.9521 10.337 66.9521 12.1982V20.0441H70.5886V11.3392C70.5886 8.2467 68.6988 6.18502 65.6062 6.18502C63.6305 6.18502 61.941 7.15859 61.1106 8.90528V0H57.4454V20.0441H61.1106Z" fill="white"></path>
										<path d="M72.2224 6.47136V20.0441H75.8876V6.47136H72.2224ZM72.1078 4.43833H76.0307V0.572688H72.1078V4.43833Z" fill="white"></path>
										<path d="M81.4981 20.0441V12.5419C81.4981 10.3943 82.6721 9.16299 84.3043 9.16299C85.8792 9.16299 86.8528 10.3084 86.8528 12.1696V20.0441H90.518V11.1674C90.518 8.04626 88.5708 6.18502 85.6215 6.18502C83.9034 6.18502 82.3858 6.87225 81.4981 8.2467V6.47136H77.8329V20.0441H81.4981Z" fill="white"></path>
										<path d="M92.5123 21.9053C93.4573 24.6255 95.6335 26 98.9551 26C103.537 26 105.97 23.1938 105.97 18.8128V6.47136H102.334V8.07489C101.446 6.81498 100.1 6.18502 98.2392 6.18502C94.7172 6.18502 91.7965 8.93392 91.7965 13.2291C91.7965 17.2093 94.4881 19.9582 97.9815 19.9582C100.072 19.9582 101.504 19.2423 102.334 17.8106V19.0991C102.334 21.5044 101.246 22.9361 99.041 22.9361C97.3515 22.9361 96.1775 22.0485 95.748 20.4736L92.5123 21.9053ZM102.448 13.1432C102.448 15.3194 100.959 16.8943 98.9837 16.8943C96.9507 16.8943 95.4617 15.4912 95.4617 13.2291C95.4617 10.8238 96.9507 9.3348 98.9264 9.3348C100.959 9.3348 102.448 10.8524 102.448 13.1432Z" fill="white"></path>
										<path d="M14.15 13.2577C14.15 17.2952 17.1566 20.3304 21.2513 20.3304C21.2759 20.3304 36.0512 20.3303 36.0757 20.3301C40.1328 20.294 43.1035 17.271 43.1035 13.2577C43.1035 9.22063 40.1677 6.22793 36.09 6.18552C36.0608 6.18521 21.2807 6.18506 21.2513 6.18506C17.128 6.18506 14.15 9.19167 14.15 13.2577ZM39.5242 13.2577C39.5242 15.4871 38.078 16.9934 36.09 17.0365C36.0609 17.0372 21.2808 17.0375 21.2513 17.0375C19.2183 17.0375 17.7293 15.5199 17.7293 13.2577C17.7293 10.9956 19.2183 9.47801 21.2513 9.47801C21.2808 9.47801 36.0609 9.47833 36.09 9.47896C38.078 9.52209 39.5242 11.0284 39.5242 13.2577Z" fill="white"></path>
										<ellipse cx="21.6814" cy="13.2723" rx="2.79185" ry="2.79185" fill="white"></ellipse>
									</svg>