<svg width="200" height="90" viewBox="0 0 200 90" fill="none" xmlns="http://www.w3.org/2000/svg"><path d="M30.2125 49.7843C30.2125 51.5089 30.5911 52.833 31.0858 53.634C31.7345 54.6832 32.702 55.1277 33.6884 55.1277C34.9607 55.1277 36.1246 54.812 38.3675 51.7099C40.1643 49.2236 42.2816 45.7335 43.7062 43.5455L46.1188 39.8387C47.7947 37.2644 49.7345 34.4026 51.9586 32.4628C53.7743 30.8796 55.7329 30 57.7041 30C61.0136 30 64.1659 31.9178 66.5785 35.5147C69.2188 39.4539 70.5005 44.4157 70.5005 49.5361C70.5005 52.5801 69.9005 54.8168 68.8795 56.5838C67.8931 58.2927 65.9706 60 62.7366 60V55.1277C65.5057 55.1277 66.1968 52.5832 66.1968 49.6712C66.1968 45.5215 65.2293 40.9162 63.0979 37.6257C61.5853 35.2916 59.6251 33.8654 57.4685 33.8654C55.1361 33.8654 53.2591 35.6246 51.1497 38.7613C50.0282 40.4277 48.8769 42.4586 47.5842 44.7503L46.1612 47.2712C43.3026 52.3398 42.5785 53.4942 41.1492 55.3995C38.6439 58.7356 36.5047 60 33.6884 60C30.3476 60 28.235 58.5534 26.9267 56.3733C25.8586 54.5969 25.334 52.266 25.334 49.6099L30.2125 49.7843Z" fill="#000000"></path><path d="M29.1806 35.8586C31.4172 32.411 34.645 30 38.3471 30C40.4911 30 42.6225 30.6346 44.8481 32.4518C47.2827 34.4387 49.8774 37.7105 53.1146 43.1026L54.2753 45.0377C57.0774 49.7058 58.6717 52.1073 59.6047 53.2398C60.8047 54.6942 61.645 55.1277 62.7366 55.1277C65.5057 55.1277 66.1968 52.5832 66.1968 49.6712L70.5005 49.5361C70.5005 52.5801 69.9005 54.8168 68.8795 56.5838C67.8931 58.2927 65.9706 60 62.7366 60C60.7261 60 58.945 59.5634 56.9753 57.7052C55.4612 56.2791 53.691 53.7455 52.3293 51.4681L48.2785 44.7016C46.246 41.3058 44.3816 38.7738 43.3026 37.6272C42.1418 36.3942 40.6497 34.9052 38.2685 34.9052C36.3413 34.9052 34.7047 36.2576 33.335 38.3262L29.1806 35.8586Z" fill="#000000"></path><path d="M38.2685 34.9052C36.3413 34.9052 34.7047 36.2576 33.335 38.3262C31.3984 41.2492 30.2125 45.6031 30.2125 49.7843C30.2125 51.5089 30.5911 52.833 31.0858 53.634L26.9267 56.3733C25.8586 54.5969 25.334 52.266 25.334 49.6099C25.334 44.7801 26.6596 39.7461 29.1806 35.8586C31.4172 32.411 34.645 30 38.3471 30L38.2685 34.9052Z" fill="#000000"></path><path d="M79.9842 30.9487H85.6277L95.223 48.3079L104.82 30.9487H110.341V59.4722H105.737V37.6115L97.3214 52.7497H93.002L84.5879 37.6115V59.4722H79.9842V30.9487ZM124.766 41.5838C121.464 41.5838 119.476 44.0686 119 47.1455H130.205C129.974 43.9759 128.146 41.5838 124.766 41.5838ZM114.436 48.8984C114.436 42.4241 118.62 37.712 124.846 37.712C130.97 37.712 134.627 42.3644 134.627 49.244V50.5084H119C119.554 53.8555 121.775 56.111 125.356 56.111C128.214 56.111 129.999 55.2393 131.693 53.645L134.138 56.6403C131.834 58.7592 128.903 59.9812 125.193 59.9812C118.453 59.9812 114.436 55.0665 114.436 48.8984ZM140.209 41.9921H135.971V38.2225H140.209V31.9885H144.651V38.2225H151.089V41.9921H144.651V51.5466C144.651 54.8089 145.694 55.9681 148.257 55.9681C149.427 55.9681 150.098 55.8675 151.089 55.7026V59.4314C149.854 59.7801 148.676 59.9403 147.401 59.9403C142.606 59.9403 140.209 57.3204 140.209 52.0759V41.9921ZM169.793 45.6581C168.9 43.4058 166.91 41.7471 163.986 41.7471C160.185 41.7471 157.752 44.444 157.752 48.8372C157.752 53.1204 159.992 55.9476 163.804 55.9476C166.8 55.9476 168.94 54.2042 169.793 52.0351V45.6581ZM174.234 59.4722H169.874V56.4974C168.655 58.2487 166.438 59.9812 162.845 59.9812C157.069 59.9812 153.208 55.145 153.208 48.8372C153.208 42.4696 157.161 37.712 163.091 37.712C166.021 37.712 168.321 38.8838 169.874 40.9524V38.2225H174.234V59.4722Z" fill="#000000"></path></svg>