<svg width="200" height="90" viewBox="0 0 200 90" fill="none" xmlns="http://www.w3.org/2000/svg"><path d="M58.5224 32.818C50.6009 32.818 44 36.1786 44 46.3177C44 54.35 48.4387 59.4083 58.7269 59.4083C70.8367 59.4083 71.613 51.4312 71.613 51.4312H65.7452C65.7452 51.4312 64.4871 55.7265 58.369 55.7265C53.3859 55.7265 49.8019 52.3603 49.8019 47.6421H72.2266V44.6813C72.2266 40.0135 69.2634 32.818 58.5224 32.818ZM58.3179 36.602C63.0612 36.602 66.2949 39.5079 66.2949 43.8632H49.9317C49.9317 39.2395 54.1525 36.602 58.3179 36.602Z" fill="#000000"></path><path d="M72.2225 23V54.3165C72.2225 56.0941 72.0956 58.5901 72.0956 58.5901H77.6922C77.6922 58.5901 77.8931 56.7974 77.8931 55.1591C77.8931 55.1591 80.6582 59.485 88.1767 59.485C96.0939 59.485 101.472 53.9883 101.472 46.1131C101.472 38.787 96.532 32.8947 88.1894 32.8947C80.3772 32.8947 77.9496 37.1133 77.9496 37.1133V23H72.2225ZM86.7449 36.7682C92.1213 36.7682 95.5401 40.7584 95.5401 46.1131C95.5401 51.8551 91.5915 55.6115 86.7832 55.6115C81.045 55.6115 77.9496 51.1311 77.9496 46.1642C77.9496 41.5361 80.7272 36.7682 86.7449 36.7682Z" fill="#000000"></path><path d="M115.381 32.818C103.463 32.818 102.699 39.3433 102.699 40.386H108.631C108.631 40.386 108.942 36.5764 114.971 36.5764C118.89 36.5764 121.926 38.3698 121.926 41.8178V43.045H114.971C105.739 43.045 100.858 45.7459 100.858 51.2266C100.858 56.6205 105.368 59.5553 111.462 59.5553C119.768 59.5553 122.444 54.9659 122.444 54.9659C122.444 56.7913 122.584 58.5901 122.584 58.5901H127.858C127.858 58.5901 127.653 56.3604 127.653 54.9339V42.604C127.653 34.5194 121.132 32.818 115.381 32.818ZM121.926 46.7267V48.3631C121.926 50.4973 120.609 55.8032 112.856 55.8032C108.61 55.8032 106.79 53.6844 106.79 51.2266C106.79 46.7555 112.92 46.7267 121.926 46.7267Z" fill="#000000"></path><path d="M124.459 33.8417H131.132L140.709 53.0284L150.264 33.8417H156.309L138.905 68H132.564L137.586 58.4779L124.459 33.8417Z" fill="#000000"></path></svg>